<svg xmlns="http://www.w3.org/2000/svg" viewBox="0 0 42 42" aria-hidden="true" class="r-4qtqp9 r-yyyyoo r-dnmrzs r-bnwqim r-lrvibr r-m6rgpd r-1nao33i r-lwhw9o r-cnnz9e">
    <g>
        <path clip-rule="evenodd" d="M8 0C3.582 0 0 3.582 0 8v26c0 4.418 3.582 8 8 8h26c4.418 0 8-3.582 8-8V8c0-4.418-3.582-8-8-8H8zm19.997 17.35l-11.1 8.19 15.9-15.963v.015L37.391 5c-.082.117-.165.23-.248.345-3.49 4.804-5.194 7.153-3.826 13.03l-.009-.008c.943 4.001-.065 8.438-3.322 11.693-4.106 4.107-10.677 5.02-16.087 1.324l3.772-1.745c3.454 1.355 7.232.76 9.947-1.954 2.716-2.714 3.325-6.666 1.96-9.956-.259-.623-1.037-.78-1.58-.378zm-13.292-2.574c-3.314 3.31-3.983 9.047-.1 12.755l-.003.003L4 37c.663-.913 1.485-1.776 2.306-2.639l.04-.042c2.346-2.464 4.67-4.906 3.25-8.357-1.903-4.622-.795-10.038 2.73-13.56 3.664-3.66 9.06-4.583 13.568-2.729.998.37 1.867.897 2.545 1.387l-3.764 1.737c-3.505-1.47-7.52-.47-9.97 1.98z"></path>
    </g>
</svg>